# xmcd CD database file
#
# Track frame offsets:
#	197
#	2617
#	22375
#	42924
#	53602
#	69341
#	97890
#	117276
#	140987
#	164471
#	178823
#	193439
#	206422
#
# Disc length: 2883 seconds
#
# Revision: 0
# Processed by: cddbd v1.5.2PL0 Copyright (c) Steve Scherf et al.
# Submitted via: CDex 1.70beta2
#
DISCID=bc0b410d
DTITLE=Cristina Zavalloni - Stefano De Bonis - Scoiattoli Confusi
DYEAR=2000
DGENRE=Jazz
TTITLE0=intro
TTITLE1=amore mio mannaggiatté
TTITLE2=luna park
TTITLE3=ah, quel diner...
TTITLE4=mira la madrugada
TTITLE5=nati per adeguarsi
TTITLE6=fuoco sacro
TTITLE7=solo piano
TTITLE8=filmico
TTITLE9=cancion de cuna para dormir a un negrito
TTITLE10=boum!
TTITLE11=latinetto
TTITLE12=le pantofole che camminano da sole
EXTD=YEAR: 2000
EXTT0=
EXTT1=
EXTT2=
EXTT3=
EXTT4=
EXTT5=
EXTT6=
EXTT7=
EXTT8=
EXTT9=
EXTT10=
EXTT11=
EXTT12=
PLAYORDER=
